<svg width="800" height="150" xmlns="http://www.w3.org/2000/svg">
 <defs>
  <linearGradient spreadMethod="pad" y2="0" x2="1" y1="0" x1="0" id="svg_9">
   <stop offset="0.23828" stop-opacity="0.99609" stop-color="#6db6ff"/>
   <stop offset="1" stop-opacity="0.99609" stop-color="#ffff00"/>
  </linearGradient>
 </defs>
 <g>
  <title>Layer 1</title>
  <text transform="rotate(47, 719.773, 64.0175)" xml:space="preserve" text-anchor="start" font-family="'Kumbh Sans'" font-size="202" stroke-width="0" id="svg_3" y="138" x="667" stroke="#000000" fill="#ffffff">:)</text>
  <path stroke-width="0" id="svg_4" d="m198.94825,285.26513c-256.44214,0 -464.16027,-77.39669 -464.16027,-172.94815c0,-95.55147 207.71813,-172.94815 464.16027,-172.94815c256.44214,0 464.16027,77.39669 464.16027,172.94815c0,95.55147 -207.71813,172.94815 -464.16027,172.94815z" transform="rotate(-14.6301, 198.948, 112.317)" opacity="undefined" stroke="#000" fill="url(#svg_9)"/>
  <text transform="matrix(1, 0, 0, 1, 0, 0)" xml:space="preserve" text-anchor="start" font-family="'Kumbh Sans'" font-size="35" id="svg_11" y="65" x="173.66667" stroke="#000" fill="#000000">Hi:) Im Johan August Østbye</text>
  <path id="svg_12" d="m102.08409,35.33315c-1.42166,-0.27451 -2.90133,-0.45525 -4.10282,-0.50417l-0.21189,-0.00815c0.04853,-0.12231 0.08523,-0.2052 0.09707,-0.21743c0.02604,-0.02446 0.04735,-0.12774 0.04972,-0.2283c0,-0.05572 0.02131,-0.23646 0.05445,-0.47563c0.32553,0.01359 0.75759,0.02446 1.22872,0.02854c1.8194,0.01631 3.72284,0.18482 5.0285,0.44981c0.77771,0.15764 1.03458,0.1522 0.46047,-0.00815c-0.58121,-0.16172 -2.30473,-0.39953 -3.67786,-0.50281c-0.92213,-0.07202 -2.24436,-0.0992 -3.02326,-0.08426c0.02249,-0.15492 0.04853,-0.32751 0.07576,-0.50417c0.11009,-0.68356 0.14678,-1.37119 0.14915,-2.73966c0.00237,-2.12269 -0.09707,-2.70704 -0.69959,-4.11084c-0.24503,-0.57348 -0.52203,-1.05999 -0.85702,-1.50029c0.29238,-0.99068 0.28528,-2.52494 -0.01776,-3.87031c-0.24977,-1.10347 -0.33736,-1.17414 -1.20859,-0.96214c-0.73865,0.18074 -1.33052,0.42671 -2.08929,0.86566c-0.35867,0.20792 -0.85347,0.53135 -1.21214,0.78548c-0.93515,-0.37779 -1.90226,-0.62784 -2.93448,-0.76237c-1.04642,-0.1359 -3.61157,-0.05979 -4.52186,0.13318c-0.89017,0.18889 -1.69156,0.41992 -2.41719,0.69443c-0.36222,-0.25684 -0.8878,-0.60338 -1.26304,-0.82081c-0.76232,-0.4403 -1.35419,-0.68491 -2.09521,-0.86566c-0.86886,-0.21336 -0.95882,-0.14133 -1.20741,0.96214c-0.30777,1.36303 -0.31014,2.92312 -0.00592,3.91108c0.03551,0.11279 0.05682,0.19297 0.06511,0.25548c-1.23345,1.78295 -1.63592,3.7779 -1.3684,6.5624c0.06984,0.72568 0.17756,1.39157 0.32789,2.00174c-0.78718,-0.00544 -1.907,0.02718 -2.71549,0.08697c-1.3755,0.10464 -3.09902,0.33974 -3.68023,0.50145c-0.57293,0.16036 -0.31842,0.16579 0.46047,0.00951c1.30566,-0.26364 3.21029,-0.43487 5.0285,-0.44981c0.34328,-0.00136 0.66407,-0.00951 0.93988,-0.01767c0.08286,0.32207 0.17756,0.6292 0.28528,0.92137l-0.00829,0.00136c-1.20149,0.04756 -2.67997,0.2283 -4.10164,0.50281c-1.06654,0.2052 -2.64091,0.61561 -2.82439,0.73384c-0.19295,0.12367 -0.03551,0.09649 0.79073,-0.14405c1.50689,-0.43758 3.46597,-0.77325 5.89263,-1.00699l0.27108,-0.02718c0.52084,1.38885 1.32341,2.44884 2.45743,3.27509c0.69367,0.50689 1.80519,1.02737 2.3651,1.10891c0.15389,0.02174 0.60134,0.12774 0.99434,0.23374c0.39418,0.106 1.16479,0.265 1.71168,0.35605l0.01302,0c-0.01065,0.00815 -0.02012,0.01359 -0.02959,0.02174c-0.66289,0.39546 -1.09377,1.01106 -1.38379,1.98c-0.13021,0.04485 -0.29238,0.106 -0.46758,0.17531c-0.6262,0.24461 -0.87004,0.29489 -1.50453,0.30033c-0.65816,0.00544 -0.81441,-0.02718 -1.20741,-0.23918c-0.57174,-0.30577 -1.10442,-0.86837 -1.45954,-1.5397c-0.59305,-1.1225 -1.61816,-1.91613 -2.47282,-1.91613c-0.73036,0 -0.86886,0.33974 -0.34092,0.83576c0.79547,0.74607 1.3897,1.50708 1.63355,2.08872c0.13731,0.32615 0.34802,0.83032 0.46994,1.11978c0.12903,0.30848 0.40484,0.72704 0.66763,1.0165c0.61791,0.67676 1.21451,1.00019 2.10468,1.1524c0.5966,0.10056 0.74339,0.10056 1.44771,-0.00272c0.33973,-0.04756 0.6262,-0.10328 0.88307,-0.17259c0,0.33159 0,0.71345 0,1.16191c0,2.39992 -0.02486,3.1718 -0.10772,3.39739c-0.15625,0.42943 -0.50664,0.87109 -0.84755,1.0695c-0.33973,0.19841 -0.44508,0.4172 -0.30185,0.61833c0.07931,0.10872 0.23201,0.12774 0.74457,0.08969c0.97303,-0.06931 1.66078,-0.48243 2.01116,-1.21083c0.11245,-0.23374 0.1385,-0.70394 0.17401,-3.15006c0.03788,-2.65404 0.05445,-2.90953 0.20479,-3.28867c0.09115,-0.22559 0.22254,-0.4702 0.29593,-0.53679c0.12311,-0.11687 0.13139,0.11415 0.13139,3.28867c-0.00118,3.50339 -0.03196,3.92603 -0.33736,4.60007c-0.06866,0.15356 -0.19887,0.35333 -0.29001,0.44846c-0.1598,0.16715 -0.22728,0.59522 -0.11601,0.72432c0.18348,0.20928 1.10324,-0.11959 1.60514,-0.57348c0.85466,-0.77732 0.95646,-1.42011 0.96356,-6.06231l0.00355,-2.72335l0.25924,0.02854l0.25924,0.02718l0.04261,3.56183c0.04853,4.01028 0.05564,4.06872 0.64987,4.84332c0.33736,0.43758 0.6771,0.67948 1.2299,0.86837c0.73983,0.25548 0.96238,-0.13861 0.46521,-0.82217c-0.54097,-0.74335 -0.56701,-1.02737 -0.53742,-5.42767c0.02012,-2.82119 0.02012,-2.82119 0.17874,-2.65676c0.33381,0.34789 0.39773,0.91865 0.39773,3.56454c0,3.28596 0.08168,3.59852 1.09259,4.172c0.47231,0.265 0.60489,0.29761 1.20978,0.30033c0.64395,0.00272 0.68301,-0.00815 0.70669,-0.20113c0.02012,-0.15628 -0.05919,-0.26228 -0.35986,-0.47292c-0.39418,-0.27859 -0.66763,-0.63463 -0.83927,-1.08309c-0.06511,-0.17259 -0.1089,-1.30324 -0.1385,-3.63113c-0.04261,-3.25198 -0.05208,-3.40011 -0.22846,-3.90972c-0.23793,-0.68491 -0.60134,-1.22578 -1.06181,-1.58454c-0.11956,-0.08969 -0.23911,-0.16443 -0.39418,-0.22015c0.19058,-0.02174 0.37524,-0.04485 0.55399,-0.07474c1.86083,-0.28402 2.84451,-0.52048 3.63406,-0.87109c1.67025,-0.73791 2.79953,-1.96369 3.41152,-3.7018c0.05445,-0.15492 0.1089,-0.30169 0.15507,-0.41992l0.47113,0.04485c2.42784,0.2351 4.38692,0.57076 5.89381,1.0097c0.82625,0.24054 0.98368,0.26907 0.79073,0.14269c-0.17993,-0.11551 -1.75429,-0.52456 -2.81965,-0.72976l0.00003,-0.00002zm-7.11898,-0.04213c-0.27581,0.69579 -1.04524,1.58998 -1.6667,1.94059c-0.61317,0.34789 -1.57437,0.61289 -2.6634,0.73927c-0.74457,0.08697 -4.89711,0.11279 -5.58249,0.03533c-2.26922,-0.25548 -3.54055,-0.75694 -4.47807,-1.76121c-0.8878,-0.95399 -1.30211,-2.24907 -1.2299,-3.84313c0.04617,-0.99747 0.25569,-1.62395 0.80376,-2.38497c0.49835,-0.69307 1.02275,-1.12114 1.64066,-1.33857c0.51729,-0.1821 2.10468,-0.19841 4.23895,-0.04077c0.94344,0.06931 1.72352,0.06931 2.66577,0c2.23252,-0.16172 3.72284,-0.14405 4.27328,0.05164c0.86531,0.30712 1.65368,1.13337 2.12717,2.23412c0.21307,0.49194 0.2545,0.70122 0.28528,1.46088c0.04261,1.0464 -0.11482,2.15802 -0.41431,2.90681l0,0.00001zm-11.25731,-4.49271c-1.27015,-0.25548 -1.99578,2.24092 -1.02156,3.51562c0.46284,0.60474 0.8736,0.70394 1.38734,0.33702c0.47586,-0.3411 0.73392,-0.97845 0.73392,-1.80469c0,-1.10211 -0.4368,-1.91205 -1.09969,-2.04795l-0.00001,0zm7.70966,0.14949c-1.27015,-0.25548 -1.99696,2.2382 -1.02275,3.51426c0.46402,0.60474 0.8736,0.7053 1.38852,0.33566c0.47468,-0.33974 0.73392,-0.97845 0.73392,-1.80469c0,-1.09804 -0.4368,-1.91069 -1.09969,-2.04523zm-3.41626,4.90855c-0.02723,0.10056 -0.1598,0.25005 -0.29357,0.33023c-0.33855,0.19977 -0.5824,0.13046 -0.93988,-0.24325c-0.22136,-0.22966 -0.32198,-0.35061 -0.38945,-0.11008c-0.06274,0.22287 0.33145,0.66997 0.63567,0.80722c0.27936,0.12774 0.47941,0.13182 0.78245,-0.01359c0.30067,-0.14405 0.56346,-0.53135 0.56346,-0.78276c0,-0.23374 -0.29238,-0.22287 -0.35867,0.01223l-0.00001,0zm-0.37524,-0.7814c0.19295,-0.19569 0.23675,-0.59794 0.05208,-0.8113s-0.55991,-0.18074 -0.70669,0.05844c-0.17046,0.27995 -0.07931,0.4933 0.04261,0.72025c0.1894,0.16851 0.4439,0.20248 0.61199,0.03261l0.00001,0z" stroke="#000" fill="#000000"/>
 </g>
</svg>